 http://www.imdb.com/title/tt1320253/

Release Date: 13 August 2010 (USA)

Genre: Action | Adventure | Thriller

Plot: A team of mercenaries head to South America on a mission to overthrow a dictator.

Cast:
Sylvester Stallone ... Barney Ross
Jason Statham ... Lee Christmas
Jet Li ... Ying Yang
Dolph Lundgren ... Gunner Jensen
Eric Roberts ... James Munroe
Randy Couture ... Toll Road
Steve Austin ... Paine
David Zayas ... General Garza
Giselle Itié ... Sandra
Charisma Carpenter ... Lacy
Gary Daniels ... The Brit
Terry Crews ... Hale Caesar
Mickey Rourke ... Tool
Amin Joseph ... Pirate Leader
Senyo Amoaku ... Tall Pirate

Screenshots
 
http://www.imagebam.com/image/a350f195285499

File Name

The Expendables 2010 304p R5 h264.mp4

File Size
Format : MPEG-4
Format profile : Base Media
Codec ID : isom
File size : 697 MiB
Duration : 1h 39mn
Overall bit rate : 982 Kbps

Video
ID : 1
Format : AVC
Format/Info : Advanced Video Codec
Format profile : High@L4.1
Format settings, CABAC : Yes
Format settings, ReFrames : 3 frames
Codec ID : avc1
Codec ID/Info : Advanced Video Coding
Duration : 1h 39mn
Bit rate mode : Variable
Bit rate : 850 Kbps
Maximum bit rate : 4 454 Kbps
Width : 720 pixels
Height : 304 pixels
Display aspect ratio : 2.35:1
Original display aspect ratio : 2.35:1
Frame rate mode : Constant
Frame rate : 25.000 fps
Resolution : 24 bits
Colorimetry : 4:2:0
Scan type : Progressive
Bits/(Pixel*Frame) : 0.155
Stream size : 603 MiB (87%)

Audio
ID : 2
Format : AAC
Format/Info : Advanced Audio Codec
Format version : Version 4
Format profile : LC
Format settings, SBR : No
Codec ID : 40
Duration : 1h 39mn
Bit rate mode : Variable
Bit rate : 128 Kbps
Maximum bit rate : 140 Kbps
Channel(s) : 2 channels
Channel positions : L R
Sampling rate : 48.0 KHz
Resolution : 16 bits
Stream size : 90.8 MiB (13%)

English SRT : hc english subs below the hc foreign sub when needed

Language : English